<svg id="Layer_1" data-name="Layer 1" xmlns="http://www.w3.org/2000/svg" viewBox="0 0 314.27 68.1"><defs><style>.cls-1{fill:#0a1d44;}</style></defs><title>tuduu</title><path class="cls-1" d="M142.61,209.49a5.15,5.15,0,0,1,1.68,4,5.06,5.06,0,0,1-1.7,4,7.53,7.53,0,0,1-5.12,1.51H122.91v47.84c0,2.75-.61,4.8-1.84,6.13a6.2,6.2,0,0,1-4.76,2,6.29,6.29,0,0,1-4.83-2c-1.24-1.35-1.87-3.39-1.87-6.11V219H95.06A7.34,7.34,0,0,1,90,217.46a5.12,5.12,0,0,1-1.66-4,5.07,5.07,0,0,1,1.73-4.05,7.47,7.47,0,0,1,5-1.48h42.41A7.45,7.45,0,0,1,142.61,209.49Zm58.33-2.65a6.13,6.13,0,0,0-4.81,2q-1.78,2-1.79,6.08v32.66q0,8.44-3.24,12.6t-11,4.16c-3.77,0-6.71-.68-8.8-2a10.62,10.62,0,0,1-4.38-5.75,29.31,29.31,0,0,1-1.24-9.23V214.92c0-2.69-.6-4.71-1.82-6.06a6.27,6.27,0,0,0-4.92-2,6.12,6.12,0,0,0-4.78,2q-1.81,2-1.82,6.06v31.67a44.76,44.76,0,0,0,1.62,12.83,20.5,20.5,0,0,0,5.07,8.8,21,21,0,0,0,8.94,5.08A46.08,46.08,0,0,0,181,274.94a36.54,36.54,0,0,0,11.14-1.53,22.09,22.09,0,0,0,8.35-4.85,19.86,19.86,0,0,0,5.68-9.07,46.67,46.67,0,0,0,1.51-12.9V214.92q0-4.08-1.87-6.08A6.31,6.31,0,0,0,200.94,206.84Zm77.54,33.87a52.36,52.36,0,0,1-1,10.82,31.87,31.87,0,0,1-3.19,8.83,27.28,27.28,0,0,1-5.52,7,22.85,22.85,0,0,1-5.8,3.82,26.13,26.13,0,0,1-6.76,2,51.33,51.33,0,0,1-8.15.59H230.63a10.82,10.82,0,0,1-5.48-1.11,5.07,5.07,0,0,1-2.4-3.09,20,20,0,0,1-.56-5.19V216.14q0-4.32,1.93-6.25t6.24-1.93h17.39a46.74,46.74,0,0,1,11.63,1.26,21.38,21.38,0,0,1,8.81,4.72Q278.48,222.75,278.48,240.71ZM265,240.62q0-9.75-2.94-14.6c-2-3.24-4.38-5.29-7.25-6.18a36,36,0,0,0-10.43-1.32h-8.8v44.69h10.11c2.21,0,4-.06,5.21-.18a15.78,15.78,0,0,0,3.91-.89,10.73,10.73,0,0,0,3.5-2Q265,254.45,265,240.62Zm74-33.78a6.13,6.13,0,0,0-4.81,2q-1.78,2-1.79,6.08v32.66q0,8.44-3.24,12.6t-11.05,4.16c-3.77,0-6.71-.68-8.8-2a10.62,10.62,0,0,1-4.38-5.75,29.31,29.31,0,0,1-1.24-9.23V214.92c0-2.69-.6-4.71-1.82-6.06a6.27,6.27,0,0,0-4.92-2,6.12,6.12,0,0,0-4.78,2q-1.82,2-1.82,6.06v31.67a44.76,44.76,0,0,0,1.62,12.83,20.5,20.5,0,0,0,5.07,8.8,21,21,0,0,0,8.94,5.08A46.08,46.08,0,0,0,319,274.94a36.54,36.54,0,0,0,11.14-1.53,22.09,22.09,0,0,0,8.35-4.85,19.86,19.86,0,0,0,5.68-9.07,46.67,46.67,0,0,0,1.51-12.9V214.92q0-4.08-1.87-6.08A6.31,6.31,0,0,0,338.94,206.84Zm62,20.06a5.65,5.65,0,0,0-4.4-1.82,5.78,5.78,0,0,0-4.45,1.84,7.79,7.79,0,0,0-1.7,5.48v14.91q0,8.81-1,11.41a10.75,10.75,0,0,1-4,4.81,10.24,10.24,0,0,1-5.84,1.84,7.39,7.39,0,0,1-5.05-1.64,8.59,8.59,0,0,1-2.58-4.54,30.22,30.22,0,0,1-.72-7.16V232.4a7.79,7.79,0,0,0-1.71-5.48,5.82,5.82,0,0,0-4.49-1.84,5.65,5.65,0,0,0-4.4,1.82q-1.67,1.82-1.66,5.5v24.3q0,7.32,2.29,11.23a13.39,13.39,0,0,0,5.45,5.08,17.1,17.1,0,0,0,8,1.84,21.66,21.66,0,0,0,6.56-.92,17.24,17.24,0,0,0,5.3-2.81,27.27,27.27,0,0,0,4.62-4.67V268a7.36,7.36,0,0,0,1.64,5.1,5.38,5.38,0,0,0,4.16,1.82,5.32,5.32,0,0,0,4.11-1.75,7.61,7.61,0,0,0,1.59-5.26V232.4Q402.59,228.71,400.93,226.9ZM364,206.84c-6.43,0-6.44,10,0,10S370.43,206.84,364,206.84Zm31.1.84c-6.44,0-6.45,10,0,10S401.52,207.68,395.08,207.68Z" transform="translate(-88.32 -206.84)"/></svg>